<mxfile host="app.diagrams.net" agent="Mozilla/5.0 (Windows NT 10.0; Win64; x64) AppleWebKit/537.36 (KHTML, like Gecko) Chrome/132.0.0.0 Safari/537.36" version="26.0.10">
  <diagram name="Pagina-1" id="r7r1t-vE5YjFMVAtGQJk">
    <mxGraphModel dx="1311" dy="1875" grid="1" gridSize="10" guides="1" tooltips="1" connect="1" arrows="1" fold="1" page="1" pageScale="1" pageWidth="827" pageHeight="1169" math="0" shadow="0">
      <root>
        <mxCell id="0" />
        <mxCell id="1" parent="0" />
        <mxCell id="8T_xWpidXMVCsOeKpl1r-3" value="" style="edgeStyle=orthogonalEdgeStyle;rounded=0;orthogonalLoop=1;jettySize=auto;html=1;" edge="1" parent="1" source="8T_xWpidXMVCsOeKpl1r-1" target="8T_xWpidXMVCsOeKpl1r-2">
          <mxGeometry relative="1" as="geometry" />
        </mxCell>
        <mxCell id="8T_xWpidXMVCsOeKpl1r-1" value="start" style="ellipse;whiteSpace=wrap;html=1;" vertex="1" parent="1">
          <mxGeometry x="340" y="-230" width="120" height="80" as="geometry" />
        </mxCell>
        <mxCell id="8T_xWpidXMVCsOeKpl1r-9" value="" style="edgeStyle=orthogonalEdgeStyle;rounded=0;orthogonalLoop=1;jettySize=auto;html=1;" edge="1" parent="1" source="8T_xWpidXMVCsOeKpl1r-2" target="8T_xWpidXMVCsOeKpl1r-4">
          <mxGeometry relative="1" as="geometry" />
        </mxCell>
        <mxCell id="8T_xWpidXMVCsOeKpl1r-2" value="read n" style="shape=parallelogram;perimeter=parallelogramPerimeter;whiteSpace=wrap;html=1;fixedSize=1;" vertex="1" parent="1">
          <mxGeometry x="340" y="-30" width="120" height="60" as="geometry" />
        </mxCell>
        <mxCell id="8T_xWpidXMVCsOeKpl1r-11" value="" style="edgeStyle=orthogonalEdgeStyle;rounded=0;orthogonalLoop=1;jettySize=auto;html=1;" edge="1" parent="1" source="8T_xWpidXMVCsOeKpl1r-4" target="8T_xWpidXMVCsOeKpl1r-10">
          <mxGeometry relative="1" as="geometry" />
        </mxCell>
        <mxCell id="8T_xWpidXMVCsOeKpl1r-96" value="false" style="edgeLabel;html=1;align=center;verticalAlign=middle;resizable=0;points=[];" vertex="1" connectable="0" parent="8T_xWpidXMVCsOeKpl1r-11">
          <mxGeometry x="-0.41" y="-1" relative="1" as="geometry">
            <mxPoint as="offset" />
          </mxGeometry>
        </mxCell>
        <mxCell id="8T_xWpidXMVCsOeKpl1r-94" value="" style="edgeStyle=orthogonalEdgeStyle;rounded=0;orthogonalLoop=1;jettySize=auto;html=1;" edge="1" parent="1" source="8T_xWpidXMVCsOeKpl1r-4" target="8T_xWpidXMVCsOeKpl1r-93">
          <mxGeometry relative="1" as="geometry" />
        </mxCell>
        <mxCell id="8T_xWpidXMVCsOeKpl1r-97" value="true" style="edgeLabel;html=1;align=center;verticalAlign=middle;resizable=0;points=[];" vertex="1" connectable="0" parent="8T_xWpidXMVCsOeKpl1r-94">
          <mxGeometry x="-0.2233" relative="1" as="geometry">
            <mxPoint as="offset" />
          </mxGeometry>
        </mxCell>
        <mxCell id="8T_xWpidXMVCsOeKpl1r-4" value="cont &amp;gt;= n" style="rhombus;whiteSpace=wrap;html=1;" vertex="1" parent="1">
          <mxGeometry x="360" y="60" width="80" height="80" as="geometry" />
        </mxCell>
        <mxCell id="8T_xWpidXMVCsOeKpl1r-6" value="cont = 0&amp;nbsp;" style="rounded=0;whiteSpace=wrap;html=1;" vertex="1" parent="1">
          <mxGeometry x="340" y="-120" width="120" height="60" as="geometry" />
        </mxCell>
        <mxCell id="8T_xWpidXMVCsOeKpl1r-13" value="" style="edgeStyle=orthogonalEdgeStyle;rounded=0;orthogonalLoop=1;jettySize=auto;html=1;" edge="1" parent="1" source="8T_xWpidXMVCsOeKpl1r-10">
          <mxGeometry relative="1" as="geometry">
            <mxPoint x="400" y="300" as="targetPoint" />
          </mxGeometry>
        </mxCell>
        <mxCell id="8T_xWpidXMVCsOeKpl1r-10" value="read a" style="shape=parallelogram;perimeter=parallelogramPerimeter;whiteSpace=wrap;html=1;fixedSize=1;" vertex="1" parent="1">
          <mxGeometry x="340" y="180" width="120" height="60" as="geometry" />
        </mxCell>
        <mxCell id="8T_xWpidXMVCsOeKpl1r-17" style="edgeStyle=orthogonalEdgeStyle;rounded=0;orthogonalLoop=1;jettySize=auto;html=1;" edge="1" parent="1" source="8T_xWpidXMVCsOeKpl1r-16">
          <mxGeometry relative="1" as="geometry">
            <mxPoint x="280" y="210" as="targetPoint" />
          </mxGeometry>
        </mxCell>
        <mxCell id="8T_xWpidXMVCsOeKpl1r-22" value="false" style="edgeLabel;html=1;align=center;verticalAlign=middle;resizable=0;points=[];" vertex="1" connectable="0" parent="8T_xWpidXMVCsOeKpl1r-17">
          <mxGeometry x="-0.6754" y="-2" relative="1" as="geometry">
            <mxPoint as="offset" />
          </mxGeometry>
        </mxCell>
        <mxCell id="8T_xWpidXMVCsOeKpl1r-24" value="" style="edgeStyle=orthogonalEdgeStyle;rounded=0;orthogonalLoop=1;jettySize=auto;html=1;" edge="1" parent="1" source="8T_xWpidXMVCsOeKpl1r-16" target="8T_xWpidXMVCsOeKpl1r-23">
          <mxGeometry relative="1" as="geometry" />
        </mxCell>
        <mxCell id="8T_xWpidXMVCsOeKpl1r-56" value="true" style="edgeLabel;html=1;align=center;verticalAlign=middle;resizable=0;points=[];" vertex="1" connectable="0" parent="8T_xWpidXMVCsOeKpl1r-24">
          <mxGeometry x="-0.64" y="-1" relative="1" as="geometry">
            <mxPoint as="offset" />
          </mxGeometry>
        </mxCell>
        <mxCell id="8T_xWpidXMVCsOeKpl1r-16" value="a % 1 == 0" style="rhombus;whiteSpace=wrap;html=1;" vertex="1" parent="1">
          <mxGeometry x="360" y="300" width="80" height="80" as="geometry" />
        </mxCell>
        <mxCell id="8T_xWpidXMVCsOeKpl1r-21" style="edgeStyle=orthogonalEdgeStyle;rounded=0;orthogonalLoop=1;jettySize=auto;html=1;entryX=0;entryY=0.5;entryDx=0;entryDy=0;" edge="1" parent="1" source="8T_xWpidXMVCsOeKpl1r-20" target="8T_xWpidXMVCsOeKpl1r-10">
          <mxGeometry relative="1" as="geometry" />
        </mxCell>
        <mxCell id="8T_xWpidXMVCsOeKpl1r-20" value="" style="shape=waypoint;sketch=0;size=6;pointerEvents=1;points=[];fillColor=none;resizable=0;rotatable=0;perimeter=centerPerimeter;snapToPoint=1;" vertex="1" parent="1">
          <mxGeometry x="270" y="200" width="20" height="20" as="geometry" />
        </mxCell>
        <mxCell id="8T_xWpidXMVCsOeKpl1r-28" value="" style="edgeStyle=orthogonalEdgeStyle;rounded=0;orthogonalLoop=1;jettySize=auto;html=1;" edge="1" parent="1" source="8T_xWpidXMVCsOeKpl1r-23">
          <mxGeometry relative="1" as="geometry">
            <mxPoint x="660" y="610" as="targetPoint" />
          </mxGeometry>
        </mxCell>
        <mxCell id="8T_xWpidXMVCsOeKpl1r-46" value="true" style="edgeLabel;html=1;align=center;verticalAlign=middle;resizable=0;points=[];" vertex="1" connectable="0" parent="8T_xWpidXMVCsOeKpl1r-28">
          <mxGeometry x="-0.1096" y="-2" relative="1" as="geometry">
            <mxPoint as="offset" />
          </mxGeometry>
        </mxCell>
        <mxCell id="8T_xWpidXMVCsOeKpl1r-34" style="edgeStyle=orthogonalEdgeStyle;rounded=0;orthogonalLoop=1;jettySize=auto;html=1;" edge="1" parent="1" source="8T_xWpidXMVCsOeKpl1r-23">
          <mxGeometry relative="1" as="geometry">
            <mxPoint x="230" y="870" as="targetPoint" />
          </mxGeometry>
        </mxCell>
        <mxCell id="8T_xWpidXMVCsOeKpl1r-47" value="false" style="edgeLabel;html=1;align=center;verticalAlign=middle;resizable=0;points=[];" vertex="1" connectable="0" parent="8T_xWpidXMVCsOeKpl1r-34">
          <mxGeometry x="-0.7101" y="-2" relative="1" as="geometry">
            <mxPoint as="offset" />
          </mxGeometry>
        </mxCell>
        <mxCell id="8T_xWpidXMVCsOeKpl1r-23" value="n % 2 == 0&amp;nbsp;&lt;div&gt;and&amp;nbsp;&lt;/div&gt;&lt;div&gt;n &amp;gt; m&amp;nbsp;&lt;/div&gt;" style="rhombus;whiteSpace=wrap;html=1;" vertex="1" parent="1">
          <mxGeometry x="350" y="560" width="100" height="100" as="geometry" />
        </mxCell>
        <mxCell id="8T_xWpidXMVCsOeKpl1r-55" style="edgeStyle=orthogonalEdgeStyle;rounded=0;orthogonalLoop=1;jettySize=auto;html=1;" edge="1" parent="1" source="8T_xWpidXMVCsOeKpl1r-29">
          <mxGeometry relative="1" as="geometry">
            <mxPoint x="660" y="750" as="targetPoint" />
          </mxGeometry>
        </mxCell>
        <mxCell id="8T_xWpidXMVCsOeKpl1r-29" value="sum = sum + n" style="rounded=0;whiteSpace=wrap;html=1;" vertex="1" parent="1">
          <mxGeometry x="600" y="650" width="120" height="60" as="geometry" />
        </mxCell>
        <mxCell id="8T_xWpidXMVCsOeKpl1r-33" value="" style="edgeStyle=orthogonalEdgeStyle;rounded=0;orthogonalLoop=1;jettySize=auto;html=1;" edge="1" parent="1" target="8T_xWpidXMVCsOeKpl1r-32">
          <mxGeometry relative="1" as="geometry">
            <mxPoint x="660" y="730" as="sourcePoint" />
          </mxGeometry>
        </mxCell>
        <mxCell id="8T_xWpidXMVCsOeKpl1r-39" value="" style="edgeStyle=orthogonalEdgeStyle;rounded=0;orthogonalLoop=1;jettySize=auto;html=1;" edge="1" parent="1" source="8T_xWpidXMVCsOeKpl1r-32" target="8T_xWpidXMVCsOeKpl1r-38">
          <mxGeometry relative="1" as="geometry">
            <Array as="points">
              <mxPoint x="660" y="870" />
            </Array>
          </mxGeometry>
        </mxCell>
        <mxCell id="8T_xWpidXMVCsOeKpl1r-32" value="cont += 1" style="whiteSpace=wrap;html=1;rounded=0;" vertex="1" parent="1">
          <mxGeometry x="600" y="750" width="120" height="60" as="geometry" />
        </mxCell>
        <mxCell id="8T_xWpidXMVCsOeKpl1r-37" style="edgeStyle=orthogonalEdgeStyle;rounded=0;orthogonalLoop=1;jettySize=auto;html=1;entryX=-0.05;entryY=0.45;entryDx=0;entryDy=0;entryPerimeter=0;" edge="1" parent="1" source="8T_xWpidXMVCsOeKpl1r-36" target="8T_xWpidXMVCsOeKpl1r-38">
          <mxGeometry relative="1" as="geometry">
            <mxPoint x="390" y="870" as="targetPoint" />
          </mxGeometry>
        </mxCell>
        <mxCell id="8T_xWpidXMVCsOeKpl1r-36" value="" style="shape=waypoint;sketch=0;size=6;pointerEvents=1;points=[];fillColor=none;resizable=0;rotatable=0;perimeter=centerPerimeter;snapToPoint=1;" vertex="1" parent="1">
          <mxGeometry x="220" y="860" width="20" height="20" as="geometry" />
        </mxCell>
        <mxCell id="8T_xWpidXMVCsOeKpl1r-43" value="" style="edgeStyle=orthogonalEdgeStyle;rounded=0;orthogonalLoop=1;jettySize=auto;html=1;" edge="1" parent="1" source="8T_xWpidXMVCsOeKpl1r-38" target="8T_xWpidXMVCsOeKpl1r-42">
          <mxGeometry relative="1" as="geometry" />
        </mxCell>
        <mxCell id="8T_xWpidXMVCsOeKpl1r-38" value="" style="shape=waypoint;sketch=0;size=6;pointerEvents=1;points=[];fillColor=default;resizable=0;rotatable=0;perimeter=centerPerimeter;snapToPoint=1;rounded=0;" vertex="1" parent="1">
          <mxGeometry x="404" y="860" width="20" height="20" as="geometry" />
        </mxCell>
        <mxCell id="8T_xWpidXMVCsOeKpl1r-45" value="" style="edgeStyle=orthogonalEdgeStyle;rounded=0;orthogonalLoop=1;jettySize=auto;html=1;" edge="1" parent="1" source="8T_xWpidXMVCsOeKpl1r-42" target="8T_xWpidXMVCsOeKpl1r-44">
          <mxGeometry relative="1" as="geometry" />
        </mxCell>
        <mxCell id="8T_xWpidXMVCsOeKpl1r-48" value="true" style="edgeLabel;html=1;align=center;verticalAlign=middle;resizable=0;points=[];" vertex="1" connectable="0" parent="8T_xWpidXMVCsOeKpl1r-45">
          <mxGeometry x="-0.4275" y="-1" relative="1" as="geometry">
            <mxPoint as="offset" />
          </mxGeometry>
        </mxCell>
        <mxCell id="8T_xWpidXMVCsOeKpl1r-54" style="edgeStyle=orthogonalEdgeStyle;rounded=0;orthogonalLoop=1;jettySize=auto;html=1;" edge="1" parent="1" source="8T_xWpidXMVCsOeKpl1r-42">
          <mxGeometry relative="1" as="geometry">
            <mxPoint x="230" y="1150" as="targetPoint" />
          </mxGeometry>
        </mxCell>
        <mxCell id="8T_xWpidXMVCsOeKpl1r-98" value="false" style="edgeLabel;html=1;align=center;verticalAlign=middle;resizable=0;points=[];" vertex="1" connectable="0" parent="8T_xWpidXMVCsOeKpl1r-54">
          <mxGeometry x="-0.6028" y="2" relative="1" as="geometry">
            <mxPoint as="offset" />
          </mxGeometry>
        </mxCell>
        <mxCell id="8T_xWpidXMVCsOeKpl1r-42" value="n % 2 == 1&lt;div&gt;or&amp;nbsp;&lt;/div&gt;&lt;div&gt;n &amp;lt; m&lt;/div&gt;" style="rhombus;whiteSpace=wrap;html=1;sketch=0;pointerEvents=1;resizable=0;rounded=0;" vertex="1" parent="1">
          <mxGeometry x="374" y="930" width="80" height="80" as="geometry" />
        </mxCell>
        <mxCell id="8T_xWpidXMVCsOeKpl1r-63" value="" style="edgeStyle=orthogonalEdgeStyle;rounded=0;orthogonalLoop=1;jettySize=auto;html=1;" edge="1" parent="1" source="8T_xWpidXMVCsOeKpl1r-44" target="8T_xWpidXMVCsOeKpl1r-62">
          <mxGeometry relative="1" as="geometry" />
        </mxCell>
        <mxCell id="8T_xWpidXMVCsOeKpl1r-44" value="sum1 = sum1 + n" style="whiteSpace=wrap;html=1;sketch=0;pointerEvents=1;resizable=0;rounded=0;" vertex="1" parent="1">
          <mxGeometry x="610" y="1030" width="120" height="60" as="geometry" />
        </mxCell>
        <mxCell id="8T_xWpidXMVCsOeKpl1r-57" value="m = sum / cont" style="rounded=0;whiteSpace=wrap;html=1;" vertex="1" parent="1">
          <mxGeometry x="340" y="440" width="120" height="60" as="geometry" />
        </mxCell>
        <mxCell id="8T_xWpidXMVCsOeKpl1r-59" value="" style="edgeStyle=orthogonalEdgeStyle;rounded=0;orthogonalLoop=1;jettySize=auto;html=1;" edge="1" parent="1" source="8T_xWpidXMVCsOeKpl1r-58" target="8T_xWpidXMVCsOeKpl1r-29">
          <mxGeometry relative="1" as="geometry" />
        </mxCell>
        <mxCell id="8T_xWpidXMVCsOeKpl1r-58" value="" style="shape=waypoint;sketch=0;size=6;pointerEvents=1;points=[];fillColor=none;resizable=0;rotatable=0;perimeter=centerPerimeter;snapToPoint=1;" vertex="1" parent="1">
          <mxGeometry x="650" y="600" width="20" height="20" as="geometry" />
        </mxCell>
        <mxCell id="8T_xWpidXMVCsOeKpl1r-64" style="edgeStyle=orthogonalEdgeStyle;rounded=0;orthogonalLoop=1;jettySize=auto;html=1;" edge="1" parent="1" source="8T_xWpidXMVCsOeKpl1r-62">
          <mxGeometry relative="1" as="geometry">
            <mxPoint x="420" y="1150" as="targetPoint" />
          </mxGeometry>
        </mxCell>
        <mxCell id="8T_xWpidXMVCsOeKpl1r-62" value="" style="shape=waypoint;sketch=0;size=6;pointerEvents=1;points=[];fillColor=default;resizable=0;rotatable=0;perimeter=centerPerimeter;snapToPoint=1;rounded=0;" vertex="1" parent="1">
          <mxGeometry x="660" y="1140" width="20" height="20" as="geometry" />
        </mxCell>
        <mxCell id="8T_xWpidXMVCsOeKpl1r-66" style="edgeStyle=orthogonalEdgeStyle;rounded=0;orthogonalLoop=1;jettySize=auto;html=1;entryX=0.05;entryY=0.45;entryDx=0;entryDy=0;entryPerimeter=0;" edge="1" parent="1" source="8T_xWpidXMVCsOeKpl1r-65" target="8T_xWpidXMVCsOeKpl1r-67">
          <mxGeometry relative="1" as="geometry">
            <mxPoint x="410" y="1150" as="targetPoint" />
          </mxGeometry>
        </mxCell>
        <mxCell id="8T_xWpidXMVCsOeKpl1r-65" value="" style="shape=waypoint;sketch=0;size=6;pointerEvents=1;points=[];fillColor=none;resizable=0;rotatable=0;perimeter=centerPerimeter;snapToPoint=1;" vertex="1" parent="1">
          <mxGeometry x="220" y="1140" width="20" height="20" as="geometry" />
        </mxCell>
        <mxCell id="8T_xWpidXMVCsOeKpl1r-69" value="" style="edgeStyle=orthogonalEdgeStyle;rounded=0;orthogonalLoop=1;jettySize=auto;html=1;" edge="1" parent="1" source="8T_xWpidXMVCsOeKpl1r-67" target="8T_xWpidXMVCsOeKpl1r-68">
          <mxGeometry relative="1" as="geometry" />
        </mxCell>
        <mxCell id="8T_xWpidXMVCsOeKpl1r-67" value="" style="shape=waypoint;sketch=0;size=6;pointerEvents=1;points=[];fillColor=none;resizable=0;rotatable=0;perimeter=centerPerimeter;snapToPoint=1;" vertex="1" parent="1">
          <mxGeometry x="410" y="1140" width="20" height="20" as="geometry" />
        </mxCell>
        <mxCell id="8T_xWpidXMVCsOeKpl1r-68" value="" style="shape=waypoint;sketch=0;size=6;pointerEvents=1;points=[];fillColor=none;resizable=0;rotatable=0;perimeter=centerPerimeter;snapToPoint=1;" vertex="1" parent="1">
          <mxGeometry x="410" y="1240" width="20" height="20" as="geometry" />
        </mxCell>
        <mxCell id="8T_xWpidXMVCsOeKpl1r-72" value="" style="edgeStyle=orthogonalEdgeStyle;rounded=0;orthogonalLoop=1;jettySize=auto;html=1;entryX=0;entryY=0.5;entryDx=0;entryDy=0;" edge="1" parent="1" source="8T_xWpidXMVCsOeKpl1r-70" target="8T_xWpidXMVCsOeKpl1r-73">
          <mxGeometry relative="1" as="geometry">
            <mxPoint x="600" y="1295" as="targetPoint" />
          </mxGeometry>
        </mxCell>
        <mxCell id="8T_xWpidXMVCsOeKpl1r-74" value="true" style="edgeLabel;html=1;align=center;verticalAlign=middle;resizable=0;points=[];" vertex="1" connectable="0" parent="8T_xWpidXMVCsOeKpl1r-72">
          <mxGeometry x="-0.3143" y="-2" relative="1" as="geometry">
            <mxPoint as="offset" />
          </mxGeometry>
        </mxCell>
        <mxCell id="8T_xWpidXMVCsOeKpl1r-76" value="" style="edgeStyle=orthogonalEdgeStyle;rounded=0;orthogonalLoop=1;jettySize=auto;html=1;" edge="1" parent="1" source="8T_xWpidXMVCsOeKpl1r-70" target="8T_xWpidXMVCsOeKpl1r-75">
          <mxGeometry relative="1" as="geometry" />
        </mxCell>
        <mxCell id="8T_xWpidXMVCsOeKpl1r-77" value="false" style="edgeLabel;html=1;align=center;verticalAlign=middle;resizable=0;points=[];" vertex="1" connectable="0" parent="8T_xWpidXMVCsOeKpl1r-76">
          <mxGeometry x="0.175" y="3" relative="1" as="geometry">
            <mxPoint as="offset" />
          </mxGeometry>
        </mxCell>
        <mxCell id="8T_xWpidXMVCsOeKpl1r-70" value="sum &amp;gt; sum1" style="rhombus;whiteSpace=wrap;html=1;" vertex="1" parent="1">
          <mxGeometry x="370" y="1250" width="100" height="90" as="geometry" />
        </mxCell>
        <mxCell id="8T_xWpidXMVCsOeKpl1r-82" value="" style="edgeStyle=orthogonalEdgeStyle;rounded=0;orthogonalLoop=1;jettySize=auto;html=1;" edge="1" parent="1" source="8T_xWpidXMVCsOeKpl1r-73" target="8T_xWpidXMVCsOeKpl1r-81">
          <mxGeometry relative="1" as="geometry" />
        </mxCell>
        <mxCell id="8T_xWpidXMVCsOeKpl1r-73" value="write sum è maggiore" style="shape=parallelogram;perimeter=parallelogramPerimeter;whiteSpace=wrap;html=1;fixedSize=1;" vertex="1" parent="1">
          <mxGeometry x="600" y="1265" width="150" height="60" as="geometry" />
        </mxCell>
        <mxCell id="8T_xWpidXMVCsOeKpl1r-79" value="" style="edgeStyle=orthogonalEdgeStyle;rounded=0;orthogonalLoop=1;jettySize=auto;html=1;" edge="1" parent="1" source="8T_xWpidXMVCsOeKpl1r-75" target="8T_xWpidXMVCsOeKpl1r-78">
          <mxGeometry relative="1" as="geometry" />
        </mxCell>
        <mxCell id="8T_xWpidXMVCsOeKpl1r-75" value="write sum1 è maggiore" style="shape=parallelogram;perimeter=parallelogramPerimeter;whiteSpace=wrap;html=1;fixedSize=1;" vertex="1" parent="1">
          <mxGeometry x="180" y="1265" width="120" height="60" as="geometry" />
        </mxCell>
        <mxCell id="8T_xWpidXMVCsOeKpl1r-80" style="edgeStyle=orthogonalEdgeStyle;rounded=0;orthogonalLoop=1;jettySize=auto;html=1;" edge="1" parent="1" source="8T_xWpidXMVCsOeKpl1r-78">
          <mxGeometry relative="1" as="geometry">
            <mxPoint x="350" y="1435" as="targetPoint" />
          </mxGeometry>
        </mxCell>
        <mxCell id="8T_xWpidXMVCsOeKpl1r-78" value="" style="shape=waypoint;sketch=0;size=6;pointerEvents=1;points=[];fillColor=default;resizable=0;rotatable=0;perimeter=centerPerimeter;snapToPoint=1;" vertex="1" parent="1">
          <mxGeometry x="230" y="1425" width="20" height="20" as="geometry" />
        </mxCell>
        <mxCell id="8T_xWpidXMVCsOeKpl1r-84" style="edgeStyle=orthogonalEdgeStyle;rounded=0;orthogonalLoop=1;jettySize=auto;html=1;" edge="1" parent="1" source="8T_xWpidXMVCsOeKpl1r-81">
          <mxGeometry relative="1" as="geometry">
            <mxPoint x="470" y="1435" as="targetPoint" />
          </mxGeometry>
        </mxCell>
        <mxCell id="8T_xWpidXMVCsOeKpl1r-81" value="" style="shape=waypoint;sketch=0;size=6;pointerEvents=1;points=[];fillColor=default;resizable=0;rotatable=0;perimeter=centerPerimeter;snapToPoint=1;" vertex="1" parent="1">
          <mxGeometry x="665" y="1425" width="20" height="20" as="geometry" />
        </mxCell>
        <mxCell id="8T_xWpidXMVCsOeKpl1r-87" value="" style="edgeStyle=orthogonalEdgeStyle;rounded=0;orthogonalLoop=1;jettySize=auto;html=1;" edge="1" parent="1" source="8T_xWpidXMVCsOeKpl1r-85" target="8T_xWpidXMVCsOeKpl1r-86">
          <mxGeometry relative="1" as="geometry" />
        </mxCell>
        <mxCell id="8T_xWpidXMVCsOeKpl1r-85" value="cont += 1" style="rounded=0;whiteSpace=wrap;html=1;" vertex="1" parent="1">
          <mxGeometry x="350" y="1405" width="120" height="60" as="geometry" />
        </mxCell>
        <mxCell id="8T_xWpidXMVCsOeKpl1r-89" value="" style="edgeStyle=orthogonalEdgeStyle;rounded=0;orthogonalLoop=1;jettySize=auto;html=1;" edge="1" parent="1" source="8T_xWpidXMVCsOeKpl1r-86" target="8T_xWpidXMVCsOeKpl1r-88">
          <mxGeometry relative="1" as="geometry" />
        </mxCell>
        <mxCell id="8T_xWpidXMVCsOeKpl1r-86" value="" style="shape=waypoint;sketch=0;size=6;pointerEvents=1;points=[];fillColor=default;resizable=0;rotatable=0;perimeter=centerPerimeter;snapToPoint=1;rounded=0;" vertex="1" parent="1">
          <mxGeometry x="400" y="1565" width="20" height="20" as="geometry" />
        </mxCell>
        <mxCell id="8T_xWpidXMVCsOeKpl1r-91" value="" style="edgeStyle=orthogonalEdgeStyle;rounded=0;orthogonalLoop=1;jettySize=auto;html=1;" edge="1" parent="1" source="8T_xWpidXMVCsOeKpl1r-88" target="8T_xWpidXMVCsOeKpl1r-90">
          <mxGeometry relative="1" as="geometry" />
        </mxCell>
        <mxCell id="8T_xWpidXMVCsOeKpl1r-88" value="" style="shape=waypoint;sketch=0;size=6;pointerEvents=1;points=[];fillColor=default;resizable=0;rotatable=0;perimeter=centerPerimeter;snapToPoint=1;rounded=0;" vertex="1" parent="1">
          <mxGeometry x="110" y="1565" width="20" height="20" as="geometry" />
        </mxCell>
        <mxCell id="8T_xWpidXMVCsOeKpl1r-92" style="edgeStyle=orthogonalEdgeStyle;rounded=0;orthogonalLoop=1;jettySize=auto;html=1;entryX=0;entryY=0.5;entryDx=0;entryDy=0;" edge="1" parent="1" source="8T_xWpidXMVCsOeKpl1r-90" target="8T_xWpidXMVCsOeKpl1r-4">
          <mxGeometry relative="1" as="geometry" />
        </mxCell>
        <mxCell id="8T_xWpidXMVCsOeKpl1r-90" value="" style="shape=waypoint;sketch=0;size=6;pointerEvents=1;points=[];fillColor=default;resizable=0;rotatable=0;perimeter=centerPerimeter;snapToPoint=1;rounded=0;" vertex="1" parent="1">
          <mxGeometry x="110" y="90" width="20" height="20" as="geometry" />
        </mxCell>
        <mxCell id="8T_xWpidXMVCsOeKpl1r-93" value="" style="shape=waypoint;sketch=0;size=6;pointerEvents=1;points=[];fillColor=default;resizable=0;rotatable=0;perimeter=centerPerimeter;snapToPoint=1;" vertex="1" parent="1">
          <mxGeometry x="550" y="90" width="20" height="20" as="geometry" />
        </mxCell>
        <mxCell id="8T_xWpidXMVCsOeKpl1r-100" value="" style="edgeStyle=orthogonalEdgeStyle;rounded=0;orthogonalLoop=1;jettySize=auto;html=1;" edge="1" parent="1" source="8T_xWpidXMVCsOeKpl1r-95" target="8T_xWpidXMVCsOeKpl1r-99">
          <mxGeometry relative="1" as="geometry" />
        </mxCell>
        <mxCell id="8T_xWpidXMVCsOeKpl1r-95" value="write la somma dei pari è sum e la somma dei dispari è sum1" style="shape=parallelogram;perimeter=parallelogramPerimeter;whiteSpace=wrap;html=1;fixedSize=1;" vertex="1" parent="1">
          <mxGeometry x="550" y="70" width="220" height="60" as="geometry" />
        </mxCell>
        <mxCell id="8T_xWpidXMVCsOeKpl1r-99" value="end" style="ellipse;whiteSpace=wrap;html=1;" vertex="1" parent="1">
          <mxGeometry x="620" y="150" width="80" height="80" as="geometry" />
        </mxCell>
      </root>
    </mxGraphModel>
  </diagram>
</mxfile>
